<?xml version="1.0" encoding="UTF-8" standalone="no"?>
<!-- Created with Inkscape (http://www.inkscape.org/) -->

<svg
   version="1.1"
   id="svg2"
   width="666.66669"
   height="496.81332"
   viewBox="0 0 666.66669 496.81332"
   sodipodi:docname="3763027.eps"
   xmlns:inkscape="http://www.inkscape.org/namespaces/inkscape"
   xmlns:sodipodi="http://sodipodi.sourceforge.net/DTD/sodipodi-0.dtd"
   xmlns="http://www.w3.org/2000/svg"
   xmlns:svg="http://www.w3.org/2000/svg">
  <defs
     id="defs6" />
  <sodipodi:namedview
     id="namedview4"
     pagecolor="#ffffff"
     bordercolor="#000000"
     borderopacity="0.25"
     inkscape:showpageshadow="2"
     inkscape:pageopacity="0.0"
     inkscape:pagecheckerboard="0"
     inkscape:deskcolor="#d1d1d1" />
  <g
     id="g8"
     inkscape:groupmode="layer"
     inkscape:label="ink_ext_XXXXXX"
     transform="matrix(1.3333333,0,0,-1.3333333,0,496.81333)">
    <g
       id="g10"
       transform="scale(0.1)">
      <path
         d="M 5000,449.129 H 0 v 2.5 h 5000 v -2.5"
         style="fill:#e7e8e5;fill-opacity:1;fill-rule:nonzero;stroke:none"
         id="path12" />
      <path
         d="m 4167.79,290.672 h 331.22 v -2.5 h -331.22 v 2.5"
         style="fill:#e7e8e5;fill-opacity:1;fill-rule:nonzero;stroke:none"
         id="path14" />
      <path
         d="m 3225.27,263.539 h 86.93 v -2.5 h -86.93 v 2.5"
         style="fill:#e7e8e5;fill-opacity:1;fill-rule:nonzero;stroke:none"
         id="path16" />
      <path
         d="m 3681.11,383.539 h 476.67 v -2.5 h -476.67 v 2.5"
         style="fill:#e7e8e5;fill-opacity:1;fill-rule:nonzero;stroke:none"
         id="path18" />
      <path
         d="m 524.59,366.73 h 236.793 v -2.5 H 524.59 v 2.5"
         style="fill:#e7e8e5;fill-opacity:1;fill-rule:nonzero;stroke:none"
         id="path20" />
      <path
         d="m 850.414,366.73 h 258.476 v -2.5 H 850.414 v 2.5"
         style="fill:#e7e8e5;fill-opacity:1;fill-rule:nonzero;stroke:none"
         id="path22" />
      <path
         d="m 1314.71,324.512 h 646.4 v -2.5 h -646.4 v 2.5"
         style="fill:#e7e8e5;fill-opacity:1;fill-rule:nonzero;stroke:none"
         id="path24" />
      <path
         d="m 439.152,3723.59 c -30.101,0 -54.582,-24.49 -54.582,-54.57 V 954.699 c 0,-30.097 24.481,-54.578 54.582,-54.578 H 2370.14 c 30.08,0 54.57,24.481 54.57,54.578 V 3669.02 c 0,30.08 -24.49,54.57 -54.57,54.57 H 439.152 M 2370.14,897.621 H 439.152 c -31.476,0 -57.082,25.598 -57.082,57.078 V 3669.02 c 0,31.46 25.606,57.07 57.082,57.07 H 2370.14 c 31.46,0 57.07,-25.61 57.07,-57.07 V 954.699 c 0,-31.48 -25.61,-57.078 -57.07,-57.078"
         style="fill:#e7e8e5;fill-opacity:1;fill-rule:nonzero;stroke:none"
         id="path26" />
      <path
         d="m 2602.12,3723.59 c -30.09,0 -54.57,-24.49 -54.57,-54.57 V 954.699 c 0,-30.097 24.48,-54.578 54.57,-54.578 h 1930.99 c 30.09,0 54.58,24.481 54.58,54.578 V 3669.02 c 0,30.08 -24.49,54.57 -54.58,54.57 H 2602.12 M 4533.11,897.621 H 2602.12 c -31.47,0 -57.07,25.598 -57.07,57.078 V 3669.02 c 0,31.46 25.6,57.07 57.07,57.07 h 1930.99 c 31.47,0 57.08,-25.61 57.08,-57.07 V 954.699 c 0,-31.48 -25.61,-57.078 -57.08,-57.078"
         style="fill:#e7e8e5;fill-opacity:1;fill-rule:nonzero;stroke:none"
         id="path28" />
      <path
         d="m 2834.44,451.629 h 1579.73 v 3013.98 H 2834.44 Z"
         style="fill:#e7e8e5;fill-opacity:1;fill-rule:nonzero;stroke:none"
         id="path30" />
      <path
         d="m 2951.94,451.629 h 1344.73 v 2915.7 H 2951.94 Z"
         style="fill:#f3f2f1;fill-opacity:1;fill-rule:nonzero;stroke:none"
         id="path32" />
      <path
         d="m 3435.28,3125.49 h 378.05 v -104.55 h -378.05 v 104.55"
         style="fill:#ffffff;fill-opacity:1;fill-rule:nonzero;stroke:none"
         id="path34" />
      <path
         d="m 3983.71,2087.45 h 205.11 c 17.69,0 32.03,-14.33 32.03,-32.03 0,-17.68 -14.34,-32.03 -32.03,-32.03 h -205.11 c -17.69,0 -32.03,14.35 -32.03,32.03 0,17.7 14.34,32.03 32.03,32.03"
         style="fill:#ffffff;fill-opacity:1;fill-rule:nonzero;stroke:none"
         id="path36" />
      <path
         d="m 703.805,2298.18 h 1050.57 v 846.703 H 703.805 Z"
         style="fill:#e7e8e5;fill-opacity:1;fill-rule:nonzero;stroke:none"
         id="path38" />
      <path
         d="m 760.137,2354.58 h 937.824 v 733.926 H 760.137 Z"
         style="fill:#fafaf9;fill-opacity:1;fill-rule:nonzero;stroke:none"
         id="path40" />
      <path
         d="m 869.508,2711.93 h 719.082 v 35.0625 H 869.508 Z"
         style="fill:#dadbd8;fill-opacity:1;fill-rule:nonzero;stroke:none"
         id="path42" />
      <path
         d="m 869.508,2632.07 h 719.082 v 35.0586 H 869.508 Z"
         style="fill:#dadbd8;fill-opacity:1;fill-rule:nonzero;stroke:none"
         id="path44" />
      <path
         d="m 869.508,2552.2 h 719.082 v 35.0625 H 869.508 Z"
         style="fill:#dadbd8;fill-opacity:1;fill-rule:nonzero;stroke:none"
         id="path46" />
      <path
         d="m 1049.8,2472.33 v 35.06 h 358.5 v -35.06 h -358.5"
         style="fill:#dadbd8;fill-opacity:1;fill-rule:nonzero;stroke:none"
         id="path48" />
      <path
         d="m 869.469,3088.54 c 0,-60.41 -48.91,-109.33 -109.317,-109.33 -20.625,0 -39.894,5.75 -56.347,15.67 v 150 h 150.113 c 9.914,-16.45 15.551,-35.73 15.551,-56.34"
         style="fill:#e7e8e5;fill-opacity:1;fill-rule:nonzero;stroke:none"
         id="path50" />
      <path
         d="m 1754.37,3144.88 v -150 c -16.46,-9.92 -35.73,-15.67 -56.35,-15.67 -60.41,0 -109.43,48.92 -109.43,109.33 0,20.61 5.75,39.89 15.66,56.34 h 150.12"
         style="fill:#e7e8e5;fill-opacity:1;fill-rule:nonzero;stroke:none"
         id="path52" />
      <path
         d="m 869.469,2354.53 c 0,-20.61 -5.637,-39.89 -15.551,-56.35 H 703.805 v 150.12 c 16.453,9.91 35.722,15.67 56.347,15.67 60.407,0 109.317,-49.03 109.317,-109.44"
         style="fill:#e7e8e5;fill-opacity:1;fill-rule:nonzero;stroke:none"
         id="path54" />
      <path
         d="m 1754.37,2448.3 v -150.12 h -150.12 c -9.91,16.46 -15.66,35.74 -15.66,56.35 0,60.41 49.02,109.44 109.43,109.44 20.62,0 39.89,-5.76 56.35,-15.67"
         style="fill:#e7e8e5;fill-opacity:1;fill-rule:nonzero;stroke:none"
         id="path56" />
      <path
         d="m 1322.21,2909.79 c 0,-51.44 -41.69,-93.14 -93.13,-93.14 -51.43,0 -93.13,41.7 -93.13,93.14 0,51.42 41.7,93.12 93.13,93.12 51.44,0 93.13,-41.7 93.13,-93.12"
         style="fill:#dadbd8;fill-opacity:1;fill-rule:nonzero;stroke:none"
         id="path58" />
      <path
         d="M 524.59,1579.29 H 2603.4 v 74.7813 H 524.59 Z"
         style="fill:#e7e8e5;fill-opacity:1;fill-rule:nonzero;stroke:none"
         id="path60" />
      <path
         d="m 1910,451.629 h 675.371 v 1127.66 H 1910 Z"
         style="fill:#f3f2f1;fill-opacity:1;fill-rule:nonzero;stroke:none"
         id="path62" />
      <path
         d="M 1225.65,1579.29 H 550.277 V 451.629 H 1225.65 V 1579.29"
         style="fill:#f3f2f1;fill-opacity:1;fill-rule:nonzero;stroke:none"
         id="path64" />
      <path
         d="M 573.332,1579.29 H 550.277 V 451.629 h 23.055 V 1579.29"
         style="fill:#e7e8e5;fill-opacity:1;fill-rule:nonzero;stroke:none"
         id="path66" />
      <path
         d="m 1910,451.629 h 23.0586 v 1127.66 H 1910 Z"
         style="fill:#e7e8e5;fill-opacity:1;fill-rule:nonzero;stroke:none"
         id="path68" />
      <path
         d="M 905,1834.38 H 780.824 l 9.965,-180.31 h 104.25 L 905,1834.38"
         style="fill:#ededeb;fill-opacity:1;fill-rule:nonzero;stroke:none"
         id="path70" />
      <path
         d="m 1334.44,1654.07 h 648.887 v 78.2188 H 1334.44 Z"
         style="fill:#ededeb;fill-opacity:1;fill-rule:nonzero;stroke:none"
         id="path72" />
      <path
         d="m 1684.17,1663.24 h 299.156 v 59.8828 H 1684.17 Z"
         style="fill:#fafaf9;fill-opacity:1;fill-rule:nonzero;stroke:none"
         id="path74" />
      <path
         d="M 4438.89,113.23 C 4438.89,50.6914 3570.83,0 2500,0 1429.18,0 561.109,50.6914 561.109,113.23 c 0,62.54 868.071,113.239 1938.891,113.239 1070.83,0 1938.89,-50.699 1938.89,-113.239"
         style="fill:#f3f2f1;fill-opacity:1;fill-rule:nonzero;stroke:none"
         id="path76" />
      <path
         d="m 3723.83,1130.19 c 0,-174.948 -141.82,-316.78 -316.77,-316.78 -174.95,0 -316.77,141.832 -316.77,316.78 0,174.95 141.82,316.76 316.77,316.76 174.95,0 316.77,-141.81 316.77,-316.76"
         style="fill:#ffffff;fill-opacity:1;fill-rule:nonzero;stroke:none"
         id="path78" />
      <path
         d="m 3407.06,1443.06 c -172.52,0 -312.88,-140.35 -312.88,-312.87 0,-172.518 140.36,-312.881 312.88,-312.881 172.52,0 312.88,140.363 312.88,312.881 0,172.52 -140.36,312.87 -312.88,312.87 m 0,-633.548 c -176.82,0 -320.67,143.859 -320.67,320.678 0,176.81 143.85,320.66 320.67,320.66 176.82,0 320.67,-143.85 320.67,-320.66 0,-176.819 -143.85,-320.678 -320.67,-320.678"
         style="fill:#406fbf;fill-opacity:1;fill-rule:nonzero;stroke:none"
         id="path80" />
      <path
         d="m 3458.04,950.59 h -101.97 v 359.19 h 101.97 V 950.59"
         style="fill:#406fbf;fill-opacity:1;fill-rule:nonzero;stroke:none"
         id="path82" />
      <path
         d="m 3227.46,1079.2 v 101.97 h 359.19 V 1079.2 h -359.19"
         style="fill:#406fbf;fill-opacity:1;fill-rule:nonzero;stroke:none"
         id="path84" />
      <path
         d="m 1261.13,3524.91 -6.86,7.29 c 46.78,44.01 104.91,72.02 168.1,81 l 1.4,-9.9 c -61.13,-8.68 -117.37,-35.79 -162.64,-78.39"
         style="fill:#406fbf;fill-opacity:1;fill-rule:nonzero;stroke:none"
         id="path86" />
      <path
         d="m 1187.15,3415.6 -9.32,3.63 c 9.91,25.36 23.2,49.36 39.47,71.38 l 8.04,-5.96 c -15.75,-21.29 -28.6,-44.52 -38.19,-69.05"
         style="fill:#406fbf;fill-opacity:1;fill-rule:nonzero;stroke:none"
         id="path88" />
      <path
         d="m 1740.48,3306.93 c 0,-151.54 -122.84,-274.38 -274.37,-274.38 -151.53,0 -274.37,122.84 -274.37,274.38 0,151.52 122.84,274.36 274.37,274.36 151.53,0 274.37,-122.84 274.37,-274.36"
         style="fill:#406fbf;fill-opacity:1;fill-rule:nonzero;stroke:none"
         id="path90" />
      <path
         d="m 1629.67,3430.52 c -44.62,46.28 -118.31,46.78 -163.56,1.53 -45.26,45.25 -118.94,44.75 -163.56,-1.53 -43.79,-45.42 -40.42,-118.59 4.19,-163.2 l 129.7,-129.7 c 16.38,-16.39 42.95,-16.39 59.34,0 l 129.69,129.7 c 44.62,44.61 47.99,117.78 4.2,163.2"
         style="fill:#ffffff;fill-opacity:1;fill-rule:nonzero;stroke:none"
         id="path92" />
      <path
         d="m 1466.11,3186.99 -0.36,0.01 c -4.14,0.15 -7.76,2.84 -9.1,6.76 l -57.92,169.29 -24.22,-70.81 c -1.39,-4.06 -5.19,-6.77 -9.47,-6.77 h -96.91 c -5.53,0 -10,4.47 -10,10 0,5.53 4.47,10 10,10 h 89.77 l 31.37,91.71 c 1.38,4.05 5.18,6.77 9.46,6.77 4.28,0 8.08,-2.72 9.46,-6.77 l 58.92,-172.23 57.17,134.68 c 1.49,3.51 4.86,5.87 8.66,6.07 3.85,0.27 7.41,-1.76 9.28,-5.09 l 30.82,-55.14 h 91.05 c 5.52,0 10,-4.47 10,-10 0,-5.53 -4.48,-10 -10,-10 h -96.92 c -3.62,0 -6.96,1.96 -8.73,5.12 l -23.72,42.44 -59.41,-139.94 c -1.57,-3.7 -5.2,-6.1 -9.2,-6.1"
         style="fill:#406fbf;fill-opacity:1;fill-rule:nonzero;stroke:none"
         id="path94" />
      <path
         d="M 2988.64,463.602 H 1944.93 c -72.9,0 -128.52,59.648 -123.59,132.546 L 1990.15,3095.2 c 4.92,72.89 68.59,132.53 141.49,132.53 h 1043.72 c 72.9,0 128.52,-59.64 123.6,-132.53 L 3130.14,596.148 c -4.92,-72.898 -68.6,-132.546 -141.5,-132.546"
         style="fill:#17282f;fill-opacity:1;fill-rule:nonzero;stroke:none"
         id="path96" />
      <path
         d="m 3219.53,2210.01 h -26.33 c -20.35,0 -35.88,16.65 -34.51,37 l 32.28,477.85 c 1.38,20.35 19.15,37.02 39.51,37.02 h 26.33 c 20.35,0 35.88,-16.67 34.51,-37.02 l -32.28,-477.85 c -1.38,-20.35 -19.15,-37 -39.51,-37"
         style="fill:#17282f;fill-opacity:1;fill-rule:nonzero;stroke:none"
         id="path98" />
      <path
         d="m 1974.83,2528.78 h -26.28 c -16.64,0 -29.34,13.61 -28.22,30.26 l 11.66,172.57 c 1.13,16.64 15.66,30.27 32.31,30.27 h 26.28 c 16.64,0 29.34,-13.63 28.22,-30.27 l -11.66,-172.57 c -1.12,-16.65 -15.66,-30.26 -32.31,-30.26"
         style="fill:#406fbf;fill-opacity:1;fill-rule:nonzero;stroke:none"
         id="path100" />
      <path
         d="m 1954.02,2220.59 h -26.28 c -16.65,0 -29.35,13.62 -28.23,30.26 l 11.66,172.57 c 1.13,16.65 15.67,30.26 32.31,30.26 h 26.28 c 16.65,0 29.35,-13.61 28.22,-30.26 l -11.65,-172.57 c -1.13,-16.64 -15.67,-30.26 -32.31,-30.26"
         style="fill:#406fbf;fill-opacity:1;fill-rule:nonzero;stroke:none"
         id="path102" />
      <path
         d="M 2966.55,463.602 H 1922.83 c -72.9,0 -128.52,59.648 -123.59,132.546 L 1968.05,3095.2 c 4.92,72.89 68.6,132.53 141.5,132.53 h 1043.71 c 72.9,0 128.52,-59.64 123.6,-132.53 L 3108.04,596.148 c -4.92,-72.898 -68.59,-132.546 -141.49,-132.546"
         style="fill:#406fbf;fill-opacity:1;fill-rule:nonzero;stroke:none"
         id="path104" />
      <path
         d="m 3100.81,623.648 h -167.86 c 0,0 -106.49,352.633 -213.59,585.462 l 155.31,822.67 h 321.26 L 3100.81,623.648 m -346.21,0 h -145.77 l 41.63,220.532 C 2709.58,717.512 2754.6,623.648 2754.6,623.648 m -653.25,0 h -291.17 l 129.9,1922.972 c 3.44,-49.84 8.48,-103.02 15.63,-158.75 41.46,-322.98 80.32,-825.21 80.32,-825.21 0,0 14.2,0.59 38.99,2.01 15.52,-117.96 31.13,-229.39 44.22,-308.13 11.85,-71.38 30.03,-167.49 50.48,-270.79 l -68.37,-362.102 m 290.01,379.452 c -10.14,76.89 -21.14,148.72 -32.75,207.49 l 38.97,206.43 c 12.98,-32.75 25.13,-62.82 36.07,-89.18 4.22,-10.15 8.59,-20.59 13.11,-31.27 l -55.4,-293.47 m 176.27,933.72 c -12.55,62.15 -25.54,124.27 -37.48,182.43 l 70.49,373.37 c 8.44,7.08 17.23,14.67 26.78,26.82 4.8,6.05 10.07,14.02 14.59,24.22 1.14,2.76 2.2,5.2 3.19,8.28 0.99,3.13 1.87,6.29 2.63,9.48 0.7,3.55 1.25,7.18 1.65,10.79 0.12,1.06 0.16,1.65 0.16,1.96 l 0.06,1.31 0.11,2.62 c 0.09,2.55 0.13,5.03 0.13,7.47 0.01,24.62 -4.41,43.41 -8.94,61.24 -2.14,7.93 -4.46,15.56 -6.91,22.98 l 74.27,393.39 h -146.44 l -33.69,-178.45 c -0.07,0.11 -0.13,0.21 -0.19,0.32 -12.6,21.4 -25.26,42 -38.61,63.04 -2.31,29.67 -22.65,55.02 -51.9,61.45 -23.36,5.14 -47.28,6.42 -65.36,6.42 -17.81,0 -29.96,-1.24 -30.35,-1.28 h -0.01 c -2.37,-4.41 -5.14,-9.61 -8.23,-15.53 -4.26,1.51 -8.36,2.59 -11.42,3.29 -0.56,0.14 -1.12,0.2 -1.67,0.2 -2.35,0 -4.56,-1.18 -5.76,-3.28 -0.36,-0.61 -0.75,-1.31 -1.19,-2.11 -13.66,15.9 -21.62,39.39 -25.77,65.93 h 977.84 l -44,-651.35 h -275.19 l 122.97,651.35 H 2780.28 L 2567.63,1936.82 m -83.84,712.51 c 0.12,12.15 0.26,24.31 0.41,36.4 1.59,-3.13 3.15,-6.26 4.68,-9.39 l -5.09,-27.01 m -516.1,306.05 7.28,107.8 h 205.13 c 1.15,-33.77 -12.27,-63.68 -61.77,-77.09 -0.75,3.09 -3.52,5.39 -6.8,5.39 -0.44,0 -0.89,-0.05 -1.34,-0.13 -0.63,-0.12 -1.26,-0.25 -1.89,-0.39 0.09,2.77 0.15,4.23 0.15,4.23 v 0 0 c -29.07,-0.78 -82.37,-13.67 -122.75,-29.51 -6.56,-2.58 -12.6,-6.07 -18.01,-10.3"
         style="fill:#6d97d6;fill-opacity:1;fill-rule:nonzero;stroke:none"
         id="path106" />
      <path
         d="m 2608.83,623.648 h -176.12 c -10.83,117.282 -24.96,254.993 -41.35,379.452 l 55.4,293.47 c 57.97,-137.07 139.23,-314.238 203.7,-452.39 l -41.63,-220.532 m 110.53,585.462 c -26.82,58.3 -53.66,109.07 -78.9,144.93 -18.6,95.58 -33.68,186.08 -46.92,270.49 9.41,1.84 18.72,3.73 27.94,5.68 v 0 0 c -11.1,88.07 -31.78,197.38 -53.85,306.61 l 212.65,1126.36 h 289.11 l -122.97,-651.35 h -71.61 c -78.39,0 -146.86,-64.13 -152.15,-142.52 l -21.75,-322 148.22,84.47 h 25.54 l -155.31,-822.67"
         style="fill:#78a0da;fill-opacity:1;fill-rule:nonzero;stroke:none"
         id="path108" />
      <path
         d="m 2243.9,623.648 h -142.55 l 68.37,362.102 c 23.77,-120.102 50.62,-249.93 74.18,-362.102 m 114.71,586.942 c -8.12,41.05 -16.54,75.75 -25.18,101.35 0.88,65.95 3.66,154.92 7.33,251.05 19.85,-51.75 39.11,-101.35 56.82,-145.97 l -38.97,-206.43 m 171.54,908.66 c -25.87,126.15 -46.73,233.67 -47.15,282.47 v 0 c -0.07,7.57 -0.12,15.54 -0.16,23.83 22.17,9.86 44.41,20.54 66.99,33.18 16.15,9.19 32.41,19.05 49.84,33.08 0.33,0.27 0.65,0.54 0.97,0.81 l -70.49,-373.37 m -47.07,448.62 c 0.18,26.64 0.41,54.03 0.71,81.46 l 5.09,27.01 c 4.26,-8.71 8.28,-17.4 12,-26.04 5.68,-13.28 10.66,-26.42 14.26,-38.51 2.21,-7.12 3.75,-14.19 4.61,-19.64 -0.43,-0.37 -0.87,-0.74 -1.32,-1.1 -7.96,-6.61 -19.5,-14.13 -31.72,-21.13 -1.2,-0.68 -2.41,-1.37 -3.63,-2.05 m 41.48,28.93 c 0.49,0.8 0.84,1.16 0.85,1.16 v 0 c 0,-0.01 -0.02,-0.03 -0.06,-0.07 0,-0.12 -0.28,-0.51 -0.79,-1.09 m 109.53,72.99 c -3.54,10.69 -7.36,20.93 -11.33,30.94 -13.68,33.62 -28.89,64.84 -44.71,95.36 -15.85,30.31 -32.67,59.64 -49.82,88.64 l 33.69,178.45 h 146.44 l -74.27,-393.39"
         style="fill:#78a0da;fill-opacity:1;fill-rule:nonzero;stroke:none"
         id="path110" />
      <path
         d="m 2501.42,3166.46 h 251.69 c 8.98,0 15.84,-7.36 15.23,-16.35 -0.6,-8.98 -8.45,-16.34 -17.44,-16.34 h -251.69 c -8.99,0 -15.84,7.36 -15.24,16.34 0.61,8.99 8.46,16.35 17.45,16.35"
         style="fill:#ffffff;fill-opacity:1;fill-rule:nonzero;stroke:none"
         id="path112" />
      <path
         d="m 2449.02,223.16 -88.25,-8.48 -31.82,203.558 88.26,8.481 31.81,-203.559"
         style="fill:#f89e63;fill-opacity:1;fill-rule:nonzero;stroke:none"
         id="path114" />
      <path
         d="m 2350.73,257.809 92.33,28.75 c 3.46,1.082 6.88,-0.5 8.23,-3.797 l 30.17,-73.383 c 3.12,-7.609 -1.47,-17.18 -9.48,-19.527 -33.4,-9.774 -65.14,-12.372 -105.44,-29.653 -47.11,-20.207 -66.87,-46.777 -117.5,-46.777 -36.35,0 -44.5,33.269 -29.17,37.918 69.76,21.18 60.83,38.582 111.67,93.242 5.53,5.938 11.89,10.957 19.19,13.227"
         style="fill:#17282f;fill-opacity:1;fill-rule:nonzero;stroke:none"
         id="path116" />
      <path
         d="m 2433.62,321.738 -3.1,19.793 0.04,0.008 3.09,-19.801 h -0.03"
         style="fill:#c3c5c2;fill-opacity:1;fill-rule:nonzero;stroke:none"
         id="path118" />
      <path
         d="m 2345.36,313.262 -3.24,20.75 88.4,7.519 3.1,-19.793 -88.26,-8.476"
         style="fill:#dc834c;fill-opacity:1;fill-rule:nonzero;stroke:none"
         id="path120" />
      <path
         d="m 2392.8,2989.66 c -115.71,13.6 -230.8,4.44 -346.3,-17.95 -39.16,-7.6 -69.61,-39.86 -74.11,-79.64 -12.53,-110.59 -26.81,-358.48 28.97,-728.25 l 472.8,39.79 c 0.97,67.13 -46.78,372.8 -7.32,690.13 5.94,47.78 -26.88,90.37 -74.04,95.92"
         style="fill:#ffffff;fill-opacity:1;fill-rule:nonzero;stroke:none"
         id="path122" />
      <path
         d="m 2117.46,2894.86 16.95,-33.88 c 1.7,-3.4 5.09,-5.62 8.87,-5.8 l 18.28,-0.95 c 3.28,-0.17 6.5,0.81 9.13,2.77 l 31.54,23.47 -38.95,28.33 -45.82,-13.94"
         style="fill:#17282f;fill-opacity:1;fill-rule:nonzero;stroke:none"
         id="path124" />
      <path
         d="m 2162.24,2863.87 c -13.63,5.09 -21.34,1.73 -21.34,1.73 -14.92,-52.48 -31.25,-203.2 -32.88,-269.82 45.17,-131.62 59.94,-144.98 59.94,-144.98 l 22.96,158.48 c 0,0 -25.7,161.96 -28.68,254.59"
         style="fill:#17282f;fill-opacity:1;fill-rule:nonzero;stroke:none"
         id="path126" />
      <path
         d="m 2292.7,3217.67 c -10.79,-65.21 -19.95,-184.39 26.75,-226.5 -34.24,-35.96 -79.15,-77.64 -156.15,-82.35 -77,-4.71 -65.11,48.62 -45.59,77.11 71.87,19.15 68.4,72.77 54.29,122.85 l 120.7,108.89"
         style="fill:#f89e63;fill-opacity:1;fill-rule:nonzero;stroke:none"
         id="path128" />
      <path
         d="m 2339.13,2996.93 c -6.04,2.72 -12.58,4.51 -16.97,5.51 -2.92,0.7 -5.95,-0.49 -7.43,-3.08 -7.47,-12.64 -30.09,-68.91 -151.45,-90.56 19.93,-11.77 46.5,-48.43 57.96,-65.95 36.39,18.88 131.08,75.4 122.03,148.49 -0.38,2.4 -1.85,4.59 -4.14,5.59"
         style="fill:#f3f2f1;fill-opacity:1;fill-rule:nonzero;stroke:none"
         id="path130" />
      <path
         d="m 2118.38,2982.95 c 1,4.99 -3.27,9.34 -8.19,8.4 -5.03,-0.95 -10.02,-2.56 -12.4,-3.36 -0.98,-0.31 -1.72,-0.84 -2.56,-1.47 -9.29,-8.61 -59.99,-81.75 -12.54,-140.98 10.55,16.06 44.49,52.62 80.59,63.26 -34.14,15.46 -50.99,44.1 -44.9,74.15"
         style="fill:#f3f2f1;fill-opacity:1;fill-rule:nonzero;stroke:none"
         id="path132" />
      <path
         d="m 2179.35,3073.21 c -0.09,0.86 -0.19,1.72 -0.29,2.58 0.11,-0.86 0.21,-1.72 0.31,-2.57 -0.01,-0.01 -0.02,-0.01 -0.02,-0.01"
         style="fill:#3563b7;fill-opacity:1;fill-rule:nonzero;stroke:none"
         id="path134" />
      <path
         d="m 2179.37,3073.22 c -0.1,0.85 -0.2,1.71 -0.31,2.57 -1.08,9.01 -3.01,18.17 -5.41,27.26 8.88,-2.3 18.06,-3.5 27.36,-3.5 9.18,0 18.47,1.17 27.7,3.64 -13.73,-15.26 -33.18,-27.19 -49.34,-29.97"
         style="fill:#dc834c;fill-opacity:1;fill-rule:nonzero;stroke:none"
         id="path136" />
      <path
         d="m 2148.09,3414.73 c -61.56,-24.07 -65.63,-74.7 -59.54,-130.1 6.09,-55.39 65.75,-18.68 79.12,15.84 13.36,34.52 65.73,147.61 -19.58,114.26"
         style="fill:#17282f;fill-opacity:1;fill-rule:nonzero;stroke:none"
         id="path138" />
      <path
         d="m 2344.57,3304.43 c -17.1,-87.09 -22.73,-138.83 -72.61,-178.94 -75.04,-60.32 -176.8,-8.17 -185.77,81.67 -8.07,80.88 21.25,209.72 110.9,235.12 88.33,25.01 164.58,-50.74 147.48,-137.85"
         style="fill:#f89e63;fill-opacity:1;fill-rule:nonzero;stroke:none"
         id="path140" />
      <path
         d="m 2340.99,3232.29 c -73.34,-3.9 -57.78,37.77 -44.45,61.66 13.34,23.89 -13.89,63.34 3.89,83.89 -31.67,-12.59 -64.91,-2.22 -107.22,27.22 -32.83,22.85 -73.89,-68.65 -113.89,-22.77 -37.78,43.33 -2.68,108.62 88.06,119.16 90.73,10.54 107.3,-53.77 166.94,-48.06 59.64,5.72 38.89,-43.33 27.22,-53.33 50,-3.33 77.22,-51.11 -20.55,-167.77"
         style="fill:#17282f;fill-opacity:1;fill-rule:nonzero;stroke:none"
         id="path142" />
      <path
         d="m 2350.43,3393.96 c 0,0 37.5,18.04 38.06,63.88 19.44,-34.72 17.27,-74.12 -38.06,-63.88"
         style="fill:#17282f;fill-opacity:1;fill-rule:nonzero;stroke:none"
         id="path144" />
      <path
         d="m 2160.01,3211.39 c 27.05,-4.33 44.97,10.13 45.8,10.81 0.9,0.74 1.05,2.06 0.32,2.95 -0.72,0.89 -2.05,1 -2.95,0.25 -0.21,-0.17 -21.11,-16.91 -50.9,-7.9 -1.11,0.33 -2.29,-0.29 -2.66,-1.41 -0.36,-1.1 0.24,-2.27 1.34,-2.61 3.12,-0.94 6.14,-1.62 9.05,-2.09"
         style="fill:#17282f;fill-opacity:1;fill-rule:nonzero;stroke:none"
         id="path146" />
      <path
         d="m 2362.35,3205.8 c -14.66,-19.05 -36.56,-29.75 -55.94,-32.23 -29.16,-3.73 -38.8,23.38 -26.56,48.69 11.01,22.78 39.46,52.17 66.73,44.24 26.87,-7.81 32.54,-38.91 15.77,-60.7"
         style="fill:#f89e63;fill-opacity:1;fill-rule:nonzero;stroke:none"
         id="path148" />
      <path
         d="m 2333.43,1311.94 c 3.48,261.12 36.83,882.92 36.83,882.92 l -368.6,-31.05 c 0,0 73.32,-640.9 117.58,-907.27 45.98,-276.958 187.11,-925.579 187.11,-925.579 l 149.63,12.738 c 0,0 -54.44,766.361 -122.55,968.241"
         style="fill:#17282f;fill-opacity:1;fill-rule:nonzero;stroke:none"
         id="path150" />
      <path
         d="m 2297.28,326.832 177.87,15.059 -6.98,57.429 -185.32,-12.41 14.43,-60.078"
         style="fill:#406fbf;fill-opacity:1;fill-rule:nonzero;stroke:none"
         id="path152" />
      <path
         d="m 2213.23,3299.23 c -0.96,-7.15 -5.48,-12.51 -10.1,-12 -4.62,0.52 -7.59,6.73 -6.63,13.86 0.96,7.14 5.48,12.52 10.1,12 4.62,-0.52 7.59,-6.72 6.63,-13.86"
         style="fill:#17282f;fill-opacity:1;fill-rule:nonzero;stroke:none"
         id="path154" />
      <path
         d="m 2131.62,3305.98 c -0.96,-7.13 -5.48,-12.5 -10.1,-11.98 -4.62,0.51 -7.59,6.71 -6.63,13.85 0.95,7.15 5.48,12.51 10.1,12.01 4.62,-0.52 7.59,-6.73 6.63,-13.88"
         style="fill:#17282f;fill-opacity:1;fill-rule:nonzero;stroke:none"
         id="path156" />
      <path
         d="m 2154.64,3297.2 c 0,0 -22.38,-34.49 -43.06,-50.37 10.6,-11.15 32.57,-8.08 32.57,-8.08 l 10.49,58.45"
         style="fill:#f57739;fill-opacity:1;fill-rule:nonzero;stroke:none"
         id="path158" />
      <path
         d="m 2088.26,3287.3 c -5.93,4.23 -9.31,10.07 -8.48,16.51 l 7.16,-0.59 c 0.31,-5.25 0.76,-10.56 1.32,-15.92"
         style="fill:#a3c3ea;fill-opacity:1;fill-rule:nonzero;stroke:none"
         id="path160" />
      <path
         d="m 2089.27,3286.61 c -0.34,0.23 -0.68,0.46 -1.01,0.69 -0.56,5.36 -1.01,10.67 -1.32,15.92 l 5.41,-0.45 c -1.17,-5.38 -2.19,-10.77 -3.08,-16.16"
         style="fill:#265396;fill-opacity:1;fill-rule:nonzero;stroke:none"
         id="path162" />
      <path
         d="m 2110.26,3280.59 c -1.5,0 -3.01,0.09 -4.54,0.29 -6.34,0.82 -12.02,2.85 -16.45,5.73 0.89,5.39 1.91,10.78 3.08,16.16 l 22.88,-1.89 c 0.99,-3.82 3.29,-6.55 6.29,-6.88 0.21,-0.03 0.41,-0.04 0.62,-0.04 2.89,0 5.68,2.25 7.52,5.73 l 8.07,-0.67 c -1.33,-10.27 -13.54,-18.43 -27.47,-18.43"
         style="fill:#b08ea4;fill-opacity:1;fill-rule:nonzero;stroke:none"
         id="path164" />
      <path
         d="m 2122.14,3293.96 c -0.21,0 -0.41,0.01 -0.62,0.04 -3,0.33 -5.3,3.06 -6.29,6.88 l 14.43,-1.19 c -1.84,-3.48 -4.63,-5.73 -7.52,-5.73"
         style="fill:#265396;fill-opacity:1;fill-rule:nonzero;stroke:none"
         id="path166" />
      <path
         d="m 2205.66,3268.13 c -2.19,0 -4.42,0.2 -6.66,0.62 -15.57,2.97 -26.66,13.18 -24.51,24.45 l 24.46,-3.5 c 1.12,-1.4 2.55,-2.29 4.18,-2.47 0.2,-0.02 0.4,-0.03 0.61,-0.03 1.3,0 2.58,0.45 3.77,1.27 l 24.53,-3.52 c -1.84,-9.66 -13.34,-16.82 -26.38,-16.82"
         style="fill:#b08ea4;fill-opacity:1;fill-rule:nonzero;stroke:none"
         id="path168" />
      <path
         d="m 2203.74,3287.2 c -0.21,0 -0.41,0.01 -0.61,0.03 -1.63,0.18 -3.06,1.07 -4.18,2.47 l 8.56,-1.23 c -1.19,-0.82 -2.47,-1.27 -3.77,-1.27"
         style="fill:#265396;fill-opacity:1;fill-rule:nonzero;stroke:none"
         id="path170" />
      <path
         d="m 2205.2,3266 c -1.78,0 -3.57,0.11 -5.38,0.34 -8.1,1.04 -15.45,4.34 -20.69,9.27 -5.46,5.12 -8.02,11.41 -7.21,17.71 -0.66,0.53 -6.31,2.77 -16.05,4.02 -9.8,1.27 -15.86,0.54 -16.88,-0.36 -1.4,-12.14 -16.58,-20.59 -33.57,-18.49 -8.11,1.04 -15.46,4.33 -20.7,9.26 -5.46,5.13 -8.02,11.42 -7.21,17.71 l 4.78,-0.6 c -0.61,-4.73 1.43,-9.56 5.73,-13.6 4.51,-4.24 10.91,-7.08 18.01,-7.99 14.32,-1.89 27.13,4.82 28.42,14.87 0.71,5.54 12.35,5.22 21.98,3.99 9.64,-1.24 20.98,-3.88 20.27,-9.42 -0.61,-4.73 1.43,-9.55 5.72,-13.6 4.51,-4.23 10.91,-7.08 18.01,-7.98 7.1,-0.93 14.01,0.21 19.45,3.17 5.18,2.82 8.37,6.97 8.98,11.69 l 0.31,2.39 123.46,-15.87 -0.62,-4.78 -118.85,15.28 c -1.41,-5.28 -5.24,-9.81 -10.97,-12.94 -4.91,-2.68 -10.81,-4.07 -16.99,-4.07"
         style="fill:#17282f;fill-opacity:1;fill-rule:nonzero;stroke:none"
         id="path172" />
      <path
         d="m 2244.58,3330.6 2.05,0.59 c 2.02,1.19 2.73,3.78 1.6,5.78 -11.37,20.05 -30.66,21.06 -31.47,21.1 -2.32,0.09 -4.31,-1.72 -4.46,-4.05 -0.14,-2.32 1.6,-4.28 3.89,-4.39 0.64,-0.03 15.66,-0.98 24.74,-16.97 0.77,-1.36 2.19,-2.1 3.65,-2.06"
         style="fill:#17282f;fill-opacity:1;fill-rule:nonzero;stroke:none"
         id="path174" />
      <path
         d="m 2105.25,3341.89 c 1.34,-0.11 2.74,0.43 3.68,1.58 11.92,14.53 26.92,13.37 27.55,13.31 2.3,-0.21 4.37,1.5 4.65,3.81 0.27,2.31 -1.35,4.36 -3.64,4.59 -0.83,0.07 -20.03,1.77 -34.97,-16.44 -1.49,-1.81 -1.26,-4.47 0.51,-5.93 l 2.22,-0.92"
         style="fill:#17282f;fill-opacity:1;fill-rule:nonzero;stroke:none"
         id="path176" />
      <path
         d="m 2640.46,1354.04 c -76.51,393.16 -93.64,700.69 -166.3,849.57 l -357.06,-39.79 c 0,0 212.74,-585.93 316.55,-835.98 107.92,-260.01 320.95,-704.192 320.95,-704.192 h 178.35 c 0,0 -166.49,551.302 -292.49,730.392"
         style="fill:#17282f;fill-opacity:1;fill-rule:nonzero;stroke:none"
         id="path178" />
      <path
         d="m 1508.63,2842.54 -38.35,24.41 c -12.99,8.28 -30.18,6.28 -40.6,-4.71 l -26.18,-27.6 c -11.93,-12.59 -10.75,-32.3 2.62,-43.71 l 18.73,-15.97 c 16.23,-13.85 35.19,-24.12 55.66,-30.16 l 56.5,-16.66 37.06,39.79 c 10.98,41.95 -65.44,74.61 -65.44,74.61"
         style="fill:#f89e63;fill-opacity:1;fill-rule:nonzero;stroke:none"
         id="path180" />
      <path
         d="m 2079.93,2861.18 c -13.99,-34.2 -27.71,-65.97 -42.64,-98.51 -14.9,-32.27 -30.08,-64.52 -46.73,-96.45 -16.59,-31.98 -34.5,-63.61 -54.68,-95.37 -10.21,-15.86 -21.12,-31.68 -33.64,-47.53 -12.7,-15.83 -26.5,-31.79 -46.03,-47.7 -9.91,-7.89 -21.41,-15.94 -36.95,-22.77 -4.12,-1.67 -8.07,-3.27 -12.69,-4.64 l -6.97,-1.93 c -2.57,-0.66 -7.14,-1.46 -10.65,-1.91 -14.77,-1.68 -26.75,0.25 -36.45,2.69 -19.29,5.21 -30.99,12.42 -41.84,19.02 -10.61,6.74 -19.33,13.52 -27.48,20.32 -31.93,27.17 -55.89,54.72 -79.47,82.77 -23.32,27.95 -45.3,56.07 -66.37,84.71 -21.27,28.74 -41.47,56.89 -62.22,87.05 l 110.58,71.37 c 34.64,-55.66 74.25,-111.59 115.57,-161.5 20.8,-24.56 42.9,-48.64 63.73,-65.89 5.1,-4.2 10.1,-7.89 14.07,-10.31 3.75,-2.48 7.43,-3.52 4.88,-2.56 -1.36,0.37 -4.67,1.23 -10.86,0.58 -1.4,-0.06 -3.82,-0.66 -4.31,-0.75 l -0.76,-0.16 -0.59,-0.16 c 0.21,0.22 3.09,1.9 6.51,4.89 7.09,6 16.14,16.14 24.61,27.42 8.58,11.38 17.01,24.12 25.14,37.42 16.36,26.64 31.1,55.78 45.22,85.44 13.99,29.78 27.45,60.21 39.76,91.23 12.21,30.77 24.43,62.84 34.48,93.21 l 136.78,-49.98"
         style="fill:#406fbf;fill-opacity:1;fill-rule:nonzero;stroke:none"
         id="path182" />
      <path
         d="m 1777.91,2443.73 c -9.01,0 -16.8,1.28 -23.54,2.88 -0.64,0.14 -1.26,0.3 -1.87,0.45 -15.69,4.23 -26.35,9.8 -35.62,15.27 -2.13,1.27 -4.19,2.52 -6.22,3.75 -4.54,2.89 -8.74,5.78 -12.7,8.68 -5.28,3.87 -10.12,7.75 -14.78,11.64 -31.93,27.17 -55.89,54.72 -79.47,82.77 -17.38,20.82 -34,41.74 -50.07,62.9 -5.5,7.24 -10.93,14.51 -16.3,21.81 -21.27,28.74 -41.47,56.89 -62.22,87.05 l 110.58,71.37 c 34.64,-55.66 74.25,-111.59 115.57,-161.5 20.8,-24.56 42.9,-48.64 63.73,-65.89 3.46,-2.84 6.87,-5.46 9.95,-7.6 6.93,6.09 15.53,15.8 23.6,26.55 8.58,11.38 17.01,24.12 25.14,37.42 16.36,26.64 31.1,55.78 45.22,85.44 13.99,29.78 27.45,60.21 39.76,91.23 10.68,26.91 21.36,54.8 30.6,81.69 -2.68,-36.23 -5.7,-93.26 -5.7,-165.85 0,-46.99 1.27,-100.51 4.72,-159.14 -0.8,-1.26 -1.6,-2.53 -2.41,-3.8 -1.2,-1.86 -2.41,-3.72 -3.63,-5.59 -3.53,-5.38 -7.15,-10.77 -10.9,-16.15 -5.99,-8.6 -12.32,-17.19 -19.11,-25.79 -12.7,-15.83 -26.5,-31.79 -46.03,-47.7 -9.91,-7.89 -21.41,-15.94 -36.95,-22.77 -4.12,-1.67 -8.07,-3.27 -12.69,-4.64 l -6.97,-1.93 c -2.57,-0.66 -7.14,-1.46 -10.65,-1.91 -3.87,-0.44 -7.55,-0.64 -11.04,-0.64 m 5.77,128.39 c 0.65,-0.28 1.06,-0.43 1.11,-0.43 h 0.01 c -0.01,0.02 -0.27,0.13 -0.85,0.35 -0.08,0.02 -0.17,0.05 -0.27,0.08 v 0 0"
         style="fill:#a4c3e9;fill-opacity:1;fill-rule:nonzero;stroke:none"
         id="path184" />
      <path
         d="m 2341.81,3014.68 c -37.5,-69.55 -171.01,-336.7 -187.17,-501.29 -59.13,149.61 -46.19,481.8 -46.19,481.8 -29.07,-0.78 -82.37,-13.67 -122.75,-29.51 -26.14,-10.26 -44.1,-35.16 -46.21,-63.06 -6.13,-81.14 -14.64,-274.29 16.22,-514.75 41.46,-322.98 80.32,-825.21 80.32,-825.21 0,0 330.49,13.76 585.45,67.55 -31.12,246.86 -137.53,660.67 -138.48,771.51 -1.23,142.6 2.08,421.42 6.59,537.78 1.34,34.46 -21.89,63.88 -55.2,70.71 -45.76,9.38 -92.58,4.47 -92.58,4.47"
         style="fill:#406fbf;fill-opacity:1;fill-rule:nonzero;stroke:none"
         id="path186" />
      <path
         d="m 2489.43,2948.09 c -0.01,0.01 -0.01,0.02 -0.02,0.03 -2.48,30.65 -24.53,55.84 -55.02,62.09 -22.36,4.58 -44.97,5.75 -62.25,5.75 -17.79,0 -29.93,-1.24 -30.32,-1.28 0.39,0.04 12.54,1.28 30.35,1.28 18.08,0 42,-1.28 65.36,-6.42 29.25,-6.43 49.59,-31.78 51.9,-61.45"
         style="fill:#ccdef4;fill-opacity:1;fill-rule:nonzero;stroke:none"
         id="path188" />
      <path
         d="m 2483,2401.72 c -0.07,7.57 -0.12,15.54 -0.16,23.83 v 0 c 0.04,-8.29 0.09,-16.26 0.16,-23.83"
         style="fill:#d1e2f5;fill-opacity:1;fill-rule:nonzero;stroke:none"
         id="path190" />
      <path
         d="m 2036.03,1562.66 c 0,0 -38.86,502.23 -80.32,825.21 -8.51,66.31 -14.02,129.03 -17.42,186.78 -3.45,58.63 -4.72,112.15 -4.72,159.14 0,74.61 3.19,132.78 5.92,168.83 2.11,27.9 20.07,52.8 46.21,63.06 40.38,15.84 93.68,28.73 122.75,29.51 0,0 -1.2,-30.74 -1.2,-77.73 0,-107.48 6.25,-299.97 47.39,-404.07 16.16,164.59 149.67,431.74 187.17,501.29 h 0.01 c 0.39,0.04 12.53,1.28 30.32,1.28 17.28,0 39.89,-1.17 62.25,-5.75 30.49,-6.25 52.54,-31.44 55.02,-62.09 -4.96,7.82 -10.03,15.72 -15.22,23.73 l -118.73,-84.31 v 0 c 18.34,-23.97 36.88,-50.71 54.35,-76.7 17.53,-26.26 34.07,-53.02 49.68,-79.84 8.72,-15.02 17.05,-30.16 24.71,-45.27 -0.48,-39.42 -0.87,-79.42 -1.12,-117.86 -23.85,-13.35 -50.59,-25.78 -77.81,-37.3 -28.82,-11.9 -58.46,-22.99 -88.4,-33.51 -29.86,-10.18 -60.81,-20.22 -90.42,-28.46 v 0 0 l 6.09,-20.13 -48.33,1.8 c -0.83,0.04 -1.67,0.05 -2.5,0.05 -8.44,0 -16.8,-1.62 -24.65,-4.77 l -39.8,-15.99 c -16.3,-6.55 -23.7,-24.86 -16.4,-40.58 l 16.01,-34.52 c 5.27,-11.35 16.87,-18.35 29.18,-18.35 2.59,0 5.21,0.31 7.81,0.95 l 44.13,10.93 c 0,0 34.67,2.76 59.95,16.43 l 6.59,-21.79 c 32.85,11.01 63.86,21.82 95.56,33.59 31.58,11.52 63.04,23.71 94.49,37.13 9.42,3.98 18.83,8.01 28.26,12.2 0.04,-8.29 0.09,-16.26 0.16,-23.83 v 0 c 0.95,-110.84 107.36,-524.65 138.48,-771.51 -9.22,-1.95 -18.53,-3.84 -27.94,-5.68 -85.42,-16.74 -177.45,-29.26 -261.6,-38.49 -109.53,-12.01 -205.76,-18.45 -256.92,-21.37 -24.79,-1.42 -38.99,-2.01 -38.99,-2.01"
         style="fill:#b8d2ef;fill-opacity:1;fill-rule:nonzero;stroke:none"
         id="path192" />
      <path
         d="m 2263.89,1616.22 c -57.38,316.66 -102.93,781.35 -106.64,837.29 l 5.19,0.35 c 3.71,-55.9 49.23,-520.26 106.57,-836.72 l -5.12,-0.92"
         style="fill:#ffffff;fill-opacity:1;fill-rule:nonzero;stroke:none"
         id="path194" />
      <path
         d="m 2235.26,2179.57 h -304.73 c -11.96,0 -23.85,9.79 -26.42,21.75 l -101.96,473.69 c -2.57,11.96 5.11,21.74 17.06,21.74 h 304.73 c 11.96,0 23.85,-9.78 26.42,-21.74 l 101.96,-473.69 c 2.57,-11.96 -5.11,-21.75 -17.06,-21.75"
         style="fill:#ffffff;fill-opacity:1;fill-rule:nonzero;stroke:none"
         id="path196" />
      <path
         d="m 2225.8,2175.24 h -309.84 c -12.16,0 -24.25,9.95 -26.86,22.1 l -103.67,481.65 c -2.62,12.15 5.19,22.1 17.35,22.1 h 309.84 c 12.16,0 24.25,-9.95 26.86,-22.1 l 103.67,-481.65 c 2.61,-12.15 -5.19,-22.1 -17.35,-22.1"
         style="fill:#406fbf;fill-opacity:1;fill-rule:nonzero;stroke:none"
         id="path198" />
      <path
         d="m 2261.33,2447.39 -77.12,2.88 c -9.28,0.36 -18.53,-1.26 -27.15,-4.72 l -39.8,-15.99 c -16.3,-6.55 -23.7,-24.86 -16.4,-40.58 l 16.01,-34.52 c 6.38,-13.74 22.04,-21.11 36.99,-17.4 l 44.13,10.93 c 0,0 82.84,6.61 85.8,49.87 l -22.46,49.53"
         style="fill:#f89e63;fill-opacity:1;fill-rule:nonzero;stroke:none"
         id="path200" />
      <path
         d="m 2474.19,2971.85 c 19.15,-29.56 36.56,-57.44 53.85,-86.8 17.22,-29.1 34.1,-58.53 50.01,-88.96 15.82,-30.52 31.03,-61.74 44.71,-95.36 6.72,-16.95 13.02,-34.55 18.24,-53.92 4.98,-19.59 9.82,-40.33 8.81,-68.71 l -0.11,-2.62 -0.06,-1.31 c 0,-0.31 -0.04,-0.9 -0.16,-1.96 -0.4,-3.61 -0.95,-7.24 -1.65,-10.79 -0.76,-3.19 -1.64,-6.35 -2.63,-9.48 -0.99,-3.08 -2.05,-5.52 -3.19,-8.28 -4.52,-10.2 -9.79,-18.17 -14.59,-24.22 -9.91,-12.61 -19.01,-20.32 -27.75,-27.63 -17.43,-14.03 -33.69,-23.89 -49.84,-33.08 -32.18,-18.02 -63.68,-32.06 -95.25,-45.38 -31.45,-13.42 -62.91,-25.61 -94.49,-37.13 -31.7,-11.77 -62.71,-22.58 -95.56,-33.59 l -38.08,125.97 c 29.61,8.24 60.56,18.28 90.42,28.46 29.94,10.52 59.58,21.61 88.4,33.51 28.61,12.11 56.69,25.22 81.44,39.35 12.22,7 23.76,14.52 31.72,21.13 3.82,3.08 6.92,6.44 6.92,6.84 0.32,0.33 -0.74,-0.55 -1.93,-3.31 -0.41,-0.85 -0.55,-1.44 -0.98,-2.58 -0.44,-1.15 -0.76,-2.36 -0.97,-3.57 -0.41,-1.54 -0.67,-3.14 -0.77,-4.73 l -0.05,-0.45 -0.03,0.24 -0.05,0.45 c 0.06,4.34 -1.76,16.03 -5.43,27.85 -3.6,12.09 -8.58,25.23 -14.26,38.51 -11.5,26.71 -25.83,53.9 -41.39,80.7 -15.61,26.82 -32.15,53.58 -49.68,79.84 -17.47,25.99 -36.01,52.73 -54.35,76.7 l 118.73,84.31"
         style="fill:#406fbf;fill-opacity:1;fill-rule:nonzero;stroke:none"
         id="path202" />
      <path
         d="m 2264.53,2342.63 -6.59,21.79 -25.4,84.05 -6.09,20.13 c 29.61,8.24 60.56,18.28 90.42,28.46 29.94,10.52 59.58,21.61 88.4,33.51 28.61,12.11 56.69,25.22 81.44,39.35 12.22,7 23.76,14.52 31.72,21.13 0.45,0.36 0.89,0.73 1.32,1.1 v 0 0 c -0.86,5.45 -2.4,12.52 -4.61,19.64 -3.6,12.09 -8.58,25.23 -14.26,38.51 -5.06,11.75 -10.66,23.58 -16.68,35.43 -7.66,15.11 -15.99,30.25 -24.71,45.27 -15.61,26.82 -32.15,53.58 -49.68,79.84 -17.47,25.99 -36.01,52.73 -54.35,76.7 l 118.73,84.31 c 19.15,-29.56 36.56,-57.44 53.85,-86.8 17.22,-29.1 34.1,-58.53 50.01,-88.96 15.82,-30.52 31.03,-61.74 44.71,-95.36 6.72,-16.95 13.02,-34.55 18.24,-53.92 4.53,-17.83 8.95,-36.62 8.94,-61.24 0,-2.44 -0.04,-4.92 -0.13,-7.47 l -0.11,-2.62 -0.06,-1.31 c 0,-0.31 -0.04,-0.9 -0.16,-1.96 -0.4,-3.61 -0.95,-7.24 -1.65,-10.79 -0.76,-3.19 -1.64,-6.35 -2.63,-9.48 -0.99,-3.08 -2.05,-5.52 -3.19,-8.28 -4.52,-10.2 -9.79,-18.17 -14.59,-24.22 -9.91,-12.61 -19.01,-20.32 -27.75,-27.63 -17.43,-14.03 -33.69,-23.89 -49.84,-33.08 -32.18,-18.02 -63.68,-32.06 -95.25,-45.38 -31.45,-13.42 -62.91,-25.61 -94.49,-37.13 -31.7,-11.77 -62.71,-22.58 -95.56,-33.59 m 260.88,255.33 c -0.01,0 -0.36,-0.36 -0.85,-1.16 v 0 0 c 0.51,0.58 0.79,0.97 0.79,1.09 0.04,0.04 0.06,0.06 0.06,0.07 v 0"
         style="fill:#b8d2ef;fill-opacity:1;fill-rule:nonzero;stroke:none"
         id="path204" />
      <path
         d="m 2373.01,2624.86 c -1.32,0 -2.6,0.65 -3.36,1.84 -1.17,1.85 -0.63,4.31 1.22,5.48 l 15.63,9.93 c 29.93,19.02 44.83,53.81 37.97,88.59 l -31.38,159.06 c -6.06,30.7 -31.03,42.54 -50.57,43.37 -19.59,0.81 -45.41,-8.91 -54,-39 l -44.55,-155.89 c -9.74,-34.09 2.21,-69.99 30.45,-91.44 l 14.75,-11.2 c 1.74,-1.33 2.08,-3.82 0.75,-5.57 -1.32,-1.75 -3.8,-2.08 -5.56,-0.76 l -14.74,11.2 c -30.87,23.46 -43.93,62.69 -33.27,99.96 l 44.54,155.89 c 8.11,28.41 32.53,45.77 61.97,44.73 29.52,-1.23 52.29,-20.76 58.01,-49.75 l 31.39,-159.05 c 7.5,-38.03 -8.79,-76.04 -41.5,-96.84 l -15.63,-9.93 -2.12,-0.62"
         style="fill:#17282f;fill-opacity:1;fill-rule:nonzero;stroke:none"
         id="path206" />
      <path
         d="m 2396.98,2886.56 h -0.17 l -112.27,4.7 c -2.19,0.09 -3.9,1.94 -3.8,4.13 0.09,2.19 2,3.63 4.13,3.8 l 112.27,-4.7 c 2.19,-0.08 3.9,-1.94 3.8,-4.13 -0.09,-2.13 -1.84,-3.8 -3.96,-3.8"
         style="fill:#17282f;fill-opacity:1;fill-rule:nonzero;stroke:none"
         id="path208" />
      <path
         d="m 2342.41,2933.14 c -2.15,0 -3.91,1.7 -3.96,3.86 -0.47,19.55 -6.26,54.69 -24.98,62.37 -2.03,0.83 -3,3.15 -2.17,5.17 0.83,2.03 3.15,3 5.18,2.17 27.72,-11.37 29.76,-63.59 29.9,-69.51 0.05,-2.2 -1.68,-4.02 -3.88,-4.06 h -0.09"
         style="fill:#17282f;fill-opacity:1;fill-rule:nonzero;stroke:none"
         id="path210" />
      <path
         d="m 1998.9,2797.24 -0.79,0.08 c -2.15,0.43 -3.54,2.52 -3.11,4.66 13.16,65.71 67.78,169.48 115.87,199.82 1.86,1.15 4.31,0.6 5.47,-1.24 1.17,-1.86 0.62,-4.31 -1.23,-5.48 -46.5,-29.33 -99.47,-130.47 -112.33,-194.66 -0.38,-1.88 -2.03,-3.18 -3.88,-3.18"
         style="fill:#17282f;fill-opacity:1;fill-rule:nonzero;stroke:none"
         id="path212" />
      <path
         d="m 2031.74,2786.89 c -6.25,-15.91 -19.82,-25.46 -30.31,-21.35 -10.49,4.12 -13.94,20.36 -7.69,36.27 6.24,15.9 19.81,25.47 30.3,21.35 10.5,-4.12 13.94,-20.36 7.7,-36.27"
         style="fill:#ffffff;fill-opacity:1;fill-rule:nonzero;stroke:none"
         id="path214" />
      <path
         d="m 2295.69,2632.06 c -0.32,-7.47 -4.56,-13.37 -9.49,-13.16 -4.93,0.21 -8.67,6.43 -8.36,13.9 0.31,7.47 4.56,13.36 9.49,13.16 4.93,-0.21 8.67,-6.43 8.36,-13.9"
         style="fill:#ffffff;fill-opacity:1;fill-rule:nonzero;stroke:none"
         id="path216" />
      <path
         d="m 2381.93,2628.46 c -0.31,-7.47 -4.56,-13.37 -9.49,-13.16 -4.93,0.21 -8.67,6.43 -8.36,13.9 0.31,7.47 4.56,13.36 9.49,13.15 4.93,-0.2 8.67,-6.42 8.36,-13.89"
         style="fill:#ffffff;fill-opacity:1;fill-rule:nonzero;stroke:none"
         id="path218" />
      <path
         d="m 4077.67,2767.08 -9.98,0.67 c 2.97,44.13 -11.61,85.78 -41.08,117.29 -29.39,31.44 -69.81,48.76 -113.82,48.76 v 10 c 46.8,0 89.82,-18.44 121.13,-51.92 31.37,-33.57 46.91,-77.88 43.75,-124.8"
         style="fill:#406fbf;fill-opacity:1;fill-rule:nonzero;stroke:none"
         id="path220" />
      <path
         d="m 4068.99,2638.62 -9.98,0.67 5.57,82.58 9.99,-0.67 -5.58,-82.58"
         style="fill:#406fbf;fill-opacity:1;fill-rule:nonzero;stroke:none"
         id="path222" />
      <path
         d="m 3912.79,2908.8 h -689.6 c -76.64,0 -143.6,-62.71 -148.78,-139.37 l -6.27,-92.91 c -5.18,-76.64 53.3,-139.35 129.95,-139.35 h 689.6 l 133.78,-82.59 21.27,314.85 c 5.18,76.66 -53.29,139.37 -129.95,139.37"
         style="fill:#406fbf;fill-opacity:1;fill-rule:nonzero;stroke:none"
         id="path224" />
      <path
         d="m 3877.78,2752.52 h -639.12 v 23.22 h 639.12 v -23.22"
         style="fill:#ffffff;fill-opacity:1;fill-rule:nonzero;stroke:none"
         id="path226" />
      <path
         d="m 3872.22,2670.22 h -474.51 v 23.22 h 474.51 v -23.22"
         style="fill:#ffffff;fill-opacity:1;fill-rule:nonzero;stroke:none"
         id="path228" />
      <path
         d="m 2874.81,2411.83 h 705.22 c 78.38,0 138.19,-64.13 132.89,-142.52 l -6.41,-95.01 c -5.3,-78.39 -73.77,-142.52 -152.15,-142.52 h -705.23 l -148.22,-84.47 21.75,322 c 5.29,78.39 73.76,142.52 152.15,142.52"
         style="fill:#ffffff;fill-opacity:1;fill-rule:nonzero;stroke:none"
         id="path230" />
      <path
         d="m 2700.91,1947.31 21.75,322 c 5.29,78.39 73.76,142.52 152.15,142.52 h 705.22 c 75.17,0 133.25,-58.98 133.22,-132.95 0,-3.17 -0.11,-6.36 -0.33,-9.57 l -6.41,-95.01 c -5.3,-78.39 -73.77,-142.52 -152.15,-142.52 h -679.69 -25.54 l -148.22,-84.47 m 505.64,244.28 v -23.75 h 164.95 v 23.75 h -164.95 m -321.61,0 v -23.75 h 258.27 v 23.75 h -258.27 m 5.69,84.16 V 2252 h 653.59 v 23.75 h -653.59"
         style="fill:#dce8f7;fill-opacity:1;fill-rule:nonzero;stroke:none"
         id="path232" />
      <path
         d="m 2890.63,2252 h 653.59 v 23.75 h -653.59 z"
         style="fill:#81a9df;fill-opacity:1;fill-rule:nonzero;stroke:none"
         id="path234" />
      <path
         d="m 2884.94,2167.84 h 258.27 v 23.75 h -258.27 z"
         style="fill:#81a9df;fill-opacity:1;fill-rule:nonzero;stroke:none"
         id="path236" />
      <path
         d="m 3206.55,2167.84 h 164.949 v 23.75 H 3206.55 Z"
         style="fill:#81a9df;fill-opacity:1;fill-rule:nonzero;stroke:none"
         id="path238" />
    </g>
  </g>
</svg>
